<?xml version="1.0" encoding="UTF-8"?>
<svg fill="#0B2D14" width="100pt" height="100pt" version="1.1" viewBox="0 0 100 100" xmlns="http://www.w3.org/2000/svg">
 <g>
  <path d="m77.5 21.199h-49.301v29h49.199v-29zm-45.301 4h41.199v20l-7.6016-11c-1-1.3984-3.3008-1.3984-4.3008 0l-7.4961 11.199-3.5-5.1016c-1-1.3984-3.3008-1.3984-4.3008 0l-3.6992 5.3984c-0.10156 0.19922-0.19922 0.39844-0.30078 0.60156h-10z"/>
  <path d="m44.699 32.602c0 6.7969-10.199 6.7969-10.199 0 0-6.8008 10.199-6.8008 10.199 0"/>
  <path d="m76.5 55h-47.699c-0.80078 0-1.5 0.69922-1.5 1.5s0.69922 1.5 1.5 1.5h47.801c0.80078 0 1.5-0.69922 1.5-1.5s-0.80078-1.5-1.6016-1.5z"/>
  <path d="m76.5 65h-47.699c-0.80078 0-1.5 0.69922-1.5 1.5s0.69922 1.5 1.5 1.5h47.801c0.80078 0 1.5-0.69922 1.5-1.5s-0.80078-1.5-1.6016-1.5z"/>
  <path d="m76.5 13h-47.699c-0.80078 0-1.5 0.69922-1.5 1.5s0.69922 1.5 1.5 1.5h47.801c0.80078 0 1.5-0.69922 1.5-1.5s-0.80078-1.5-1.6016-1.5z"/>
  <path d="m76.5 75h-47.699c-0.80078 0-1.5 0.69922-1.5 1.5s0.69922 1.5 1.5 1.5h47.801c0.80078 0 1.5-0.69922 1.5-1.5s-0.80078-1.5-1.6016-1.5z"/>
  <path d="m78.898 2.5h-52.098c-3.3008 0-6 2.6992-6 6v2.6016h-1c-3.3008 0-6 2.6992-6 6v72.801c0 3.3008 2.6992 6 6 6h50.898c3.3008 0 6-2.6992 6-6v-1h2.1992c3.3008 0 6-2.6992 6-6v-74.402c0-3.3008-2.6992-6-6-6zm-6.1992 87.398c0 1.1016-0.89844 2-2 2h-50.898c-1.1016 0-2-0.89844-2-2v-72.797c0-1.1016 0.89844-2 2-2h1v67.801c0 3.3008 2.6992 6 6 6h45.898zm8.1992-7c0 1.1016-0.89844 2-2 2h-52.098c-1.1016 0-2-0.89844-2-2v-74.398c0-1.1016 0.89844-2 2-2h52.102c1.1016 0 2 0.89844 2 2z"/>
 </g>
</svg>
