<?xml version="1.0" encoding="UTF-8"?>
<svg fill="#0B2D14" width="100pt" height="100pt" version="1.1" viewBox="0 0 100 100" xmlns="http://www.w3.org/2000/svg">
 <path d="m29.688 76.562v-3.125h3.125v3.125zm-3.125-28.125h9.375v9.375h-9.375zm3.125 6.25h3.125v-3.125h-3.125zm-25 34.375v-78.125c0-3.4453 2.8047-6.25 6.25-6.25h53.125c3.4453 0 6.25 2.8047 6.25 6.25v3.125h3.125v-3.125c0-5.1719-4.2031-9.375-9.375-9.375h-53.125c-5.1719 0-9.375 4.2031-9.375 9.375v78.125c0 5.1719 4.2031 9.375 9.375 9.375h37.5v-3.125h-37.5c-3.4453 0-6.25-2.8047-6.25-6.25zm31.25-18.75h-9.375v-9.375h9.375zm-3.125-6.25h-3.125v3.125h3.125zm12.5 12.5v-3.125h-3.125v3.125zm-12.5-64.062v-3.125h-3.125v3.125zm0 75v3.125h9.375v-3.125zm6.25-39.062h9.375v9.375h-9.375zm3.125 6.25h3.125v-3.125h-3.125zm-28.125-31.25h34.375v9.375h-34.375zm3.125 6.25h28.125v-3.125h-28.125zm28.125-17.188v-3.125h-9.375v3.125zm-6.25 23.438h9.375v9.375h-9.375zm3.125 6.25h3.125v-3.125h-3.125zm56.25-18.75v68.75c0 3.4453-2.8047 6.25-6.25 6.25h-34.375c-3.4453 0-6.25-2.8047-6.25-6.25v-68.75c0-3.4453 2.8047-6.25 6.25-6.25h34.375c3.4453 0 6.25 2.8047 6.25 6.25zm-3.125 0c0-1.7227-1.3984-3.125-3.125-3.125h-34.375c-1.7266 0-3.125 1.4023-3.125 3.125v68.75c0 1.7266 1.3984 3.125 3.125 3.125h34.375c1.7266 0 3.125-1.3984 3.125-3.125zm-28.125 53.125h3.125v-3.125h-3.125zm-31.25-31.25h-9.375v-9.375h9.375zm-3.125-6.25h-3.125v3.125h3.125zm46.875 37.5h3.125v-3.125h-3.125zm-6.25-15.625h-9.375v-9.375h9.375zm-3.125-6.25h-3.125v3.125h3.125zm3.125 21.875h3.125v-3.125h-3.125zm-15.625-43.75h34.375v50h-34.375zm3.125 46.875h28.125v-43.75h-28.125zm15.625-28.125h9.375v9.375h-9.375zm3.125 6.25h3.125v-3.125h-3.125zm-3.125-18.75h9.375v9.375h-9.375zm3.125 6.25h3.125v-3.125h-3.125zm-6.25 3.125h-9.375v-9.375h9.375zm-3.125-6.25h-3.125v3.125h3.125zm-56.25 18.75h9.375v9.375h-9.375zm3.125 6.25h3.125v-3.125h-3.125zm6.25-9.375h-9.375v-9.375h9.375zm-3.125-6.25h-3.125v3.125h3.125zm50 39.062h9.375v-3.125h-9.375zm-31.25-17.188h-3.125v3.125h3.125zm-15.625-28.125h-9.375v-9.375h9.375zm-3.125-6.25h-3.125v3.125h3.125zm-12.5 43.75h40.625v-3.125h-37.5v-59.375h37.5v-3.125h-40.625zm62.5-57.812h-3.125v3.125h3.125zm12.5 0h-9.375v3.125h9.375z"/>
</svg>
