<?xml version="1.0" encoding="UTF-8"?>
<svg fill="#0B2D14" width="100pt" height="100pt" version="1.1" viewBox="0 0 100 100" xmlns="http://www.w3.org/2000/svg">
 <path d="m31.172 11.25h38.301c0.10938 0.19922 0.17188 0.33984 0.17188 0.33984s3.0742 6.7109 3.2578 7.1328-0.003906 0.78906-0.37891 0.78906h-44.402c-0.375 0-0.5625-0.36719-0.37891-0.78906 0.18359-0.42188 3.2578-7.1328 3.2578-7.1328s0.0625-0.14062 0.17188-0.33984zm50.641-0.003906h-10.129c0.44141 0.96094 1.3672 2.9844 2.0859 4.5586h6.082v74.141l-59.785 0.003907v-74.141h6.8125c0.72266-1.5781 1.6523-3.6094 2.0859-4.5586h-10.773c-1.7656 0-3.1914 1.4297-3.1914 3.1914v77.371c0 1.7578 1.4258 3.1875 3.1914 3.1875h63.617c1.7617 0 3.1914-1.4297 3.1914-3.1875v-77.375c0-1.7578-1.4297-3.1914-3.1875-3.1914zm-8.8398 20.301h-24.262v1.9922h24.262zm0 4.5195h-24.262v1.9922h24.262zm0 39.863h-24.262v1.9922h24.262zm0 6.5117h-24.262v-1.9922h24.262zm-34.031-8.6211v9.2734h-9.2734v-9.2734h9.2734m1.9922-1.9961h-13.262v13.262h13.262zm32.039-18.086h-24.262v1.9922h24.262zm0 6.5117h-24.262v-1.9922h24.262zm-37.09-0.80078l-4.6172-4.6172c-0.39062-0.39062-0.39062-1.0195 0-1.4102s1.0195-0.39062 1.4102 0l3.2109 3.2109 8.3242-8.3242c0.39062-0.39062 1.0195-0.39062 1.4102 0s0.39062 1.0195 0 1.4102zm3.0586-1.6445v3.0938h-9.2734v-9.2734h9.2734v0.53516l1.9922-1.9922v-0.53516h-13.262v13.262h13.262v-7.0859zm33.582-38.293h-44.402c-0.375 0-0.5625-0.36719-0.37891-0.78906 0.18359-0.42188 3.2578-7.1328 3.2578-7.1328s0.89062-1.9922 1.9922-1.9922h8.7383c1.2695 0 2.2969-1.0273 2.2969-2.2969l0.003906-0.30859c-0.003906-1.1016 0.89062-1.9922 1.9922-1.9922h8.875c1.1016 0 1.9922 0.89062 1.9922 1.9922v0.30469c0 1.2695 1.0273 2.2969 2.2969 2.2969h8.4648c1.1016 0 1.9922 1.9922 1.9922 1.9922s3.0742 6.7109 3.2578 7.1328c0.18359 0.42578-0.003906 0.79297-0.37891 0.79297zm-23.559-11.824c0 0.82812 0.67188 1.4961 1.5 1.4961 0.82422 0 1.4961-0.67188 1.4961-1.4961 0-0.82812-0.67188-1.4961-1.4961-1.4961-0.82812 0-1.5 0.67188-1.5 1.4961zm-3.3477 19.836c0.39062-0.39063 0.39062-1.0195 0-1.4102-0.39063-0.39062-1.0195-0.39062-1.4102 0l-8.3242 8.3242-3.2109-3.2109c-0.39062-0.39062-1.0195-0.39062-1.4102 0-0.39062 0.39063-0.39062 1.0195 0 1.4102l4.6172 4.6172zm-4.6836 6.0977v7.0859h-13.262v-13.262h13.262v0.53516l-1.9922 1.9922v-0.53516h-9.2734v9.2734h9.2734v-3.0977z"/>
</svg>
