<svg width="64" height="64" xmlns="http://www.w3.org/2000/svg">

 <g>
  <title>background</title>
  <rect fill="none" id="canvas_background" height="402" width="582" y="-1" x="-1"/>
 </g>
 <g>
  <title>Layer 1</title>
  <circle id="svg_2" r="32" fill="#77b3d4" cy="32" cx="32"/>
  <path opacity="0.2" id="svg_5" fill="#231F20" d="m32,11.914c-12.15,0 -22,9.85 -22,22s9.85,22 22,22c12.15,0 22,-9.85 22,-22s-9.85,-22 -22,-22zm-17.947,12.806c0.21,0.844 -0.21,2.36 -0.534,4.538c-0.378,2.54 1.647,1.991 1.579,4.393s1.785,3.398 1.544,3.638c-0.24,0.24 -1.201,0.583 0.24,3.707c1.441,3.123 2.677,4.05 2.849,5.731c0.172,1.682 2.025,4.153 2.025,4.153l0.103,0.462c-5.994,-3.501 -10.032,-10 -10.032,-17.428c0,-3.311 0.807,-6.435 2.226,-9.194zm9.968,27.086c-0.103,-0.446 0.103,-2.849 2.986,-3.809c2.883,-0.961 2.402,-2.231 3.26,-3.466c0.858,-1.235 1.03,-2.162 -0.618,-2.54c-1.647,-0.378 -3.363,-0.652 -4.839,-2.986c-1.476,-2.334 -3.535,-2.402 -4.633,-3.123c-1.098,-0.721 -1.991,-0.583 -3.329,-0.755c-1.338,-0.172 -0.892,-3.912 -0.824,-4.736c0.069,-0.824 -0.824,0.275 -1.476,-0.296c-0.652,-0.571 0.618,-3.239 1.888,-3.136c1.27,0.103 0.961,0.721 1.201,2.128c0.24,1.407 0.686,1.064 0.789,0.618c0.103,-0.446 0.172,-2.334 0.618,-2.917s0.549,-2.162 1.991,-2.094c1.441,0.069 1.407,-1.304 2.471,-0.858c1.064,0.446 1.819,0.103 1.133,-0.48c-0.686,-0.583 -0.309,-1.167 0.858,-0.789c1.167,0.378 1.235,-1.682 1.03,-2.746c-0.206,-1.064 -1.064,-1.373 -2.128,-0.721c-1.064,0.652 -1.853,0.378 -1.304,-0.721c0.549,-1.098 2.711,-0.172 4.015,0.378c1.304,0.549 1.647,-1.441 0.927,-2.402c-0.721,-0.961 -0.755,-0.515 -2.814,-0.378c-0.82,0.055 -0.736,-0.386 -0.338,-0.936c2.214,-0.838 4.612,-1.3 7.116,-1.3c2.535,0 4.96,0.474 7.197,1.332c0.282,0.394 0.396,0.704 0.2,0.835c-0.824,0.549 -1.544,0.059 -1.304,1.591c0.24,1.532 1.373,3.352 2.265,2.751c0.892,-0.601 2.437,0.154 1.098,0.978c-1.338,0.824 -1.716,0.755 -2.334,1.304c-0.618,0.549 -0.343,0.275 0.275,0.961c0.618,0.686 0.549,0.824 -0.309,1.167c-0.858,0.343 -1.373,1.098 -0.549,1.956c0.824,0.858 1.373,1.579 2.299,0c0.927,-1.579 1.098,-2.951 1.888,-2.54c0.789,0.412 1.682,1.682 2.265,0.961c0.583,-0.721 0.48,-1.201 1.27,-0.652c0.789,0.549 3.707,0.583 1.75,2.025c-1.956,1.441 -1.613,2.059 -2.54,1.888c-0.927,-0.172 -5.114,-1.064 -6.075,1.27c-0.961,2.334 -4.462,4.187 -2.643,6.452c1.819,2.265 1.407,3.912 4.015,4.256c2.608,0.343 3.947,-0.824 4.599,0.378s0.137,1.339 0.172,3.157c0.017,0.902 0.498,2.601 0.978,4.089c-3.672,3.81 -8.821,6.188 -14.518,6.188c-2.868,0 -5.597,-0.606 -8.07,-1.69c0.074,-0.285 0.112,-0.501 0.091,-0.592z"/>
  <path opacity="0.2" id="svg_7" fill="#231F20" d="m32.086,18.207c0.632,-0.38 0.686,0.137 1.235,-1.613c0.549,-1.75 -2.059,-1.991 -3.295,-1.785c-1.235,0.206 -0.686,0.721 -0.686,0.721c0.412,0.652 0.684,3.054 -0.053,3.947c-0.736,0.892 0.602,1.064 1.185,0.24c0.585,-0.824 0.93,-1.099 1.614,-1.51z"/>
  <path id="svg_10" fill="#FFFFFF" d="m32,10.087c-12.15,0 -22,9.85 -22,22s9.85,22 22,22c12.15,0 22,-9.85 22,-22s-9.85,-22 -22,-22zm-17.947,12.806c0.21,0.844 -0.21,2.36 -0.534,4.538c-0.378,2.54 1.647,1.991 1.579,4.393s1.785,3.398 1.544,3.638c-0.24,0.24 -1.201,0.583 0.24,3.707c1.441,3.123 2.677,4.05 2.849,5.731c0.172,1.682 2.025,4.153 2.025,4.153l0.103,0.462c-5.994,-3.501 -10.032,-10 -10.032,-17.428c0,-3.311 0.807,-6.435 2.226,-9.194zm9.968,27.086c-0.103,-0.446 0.103,-2.849 2.986,-3.809c2.883,-0.961 2.402,-2.231 3.26,-3.466c0.858,-1.235 1.03,-2.162 -0.618,-2.54c-1.647,-0.378 -3.363,-0.652 -4.839,-2.986c-1.476,-2.334 -3.535,-2.402 -4.633,-3.123c-1.098,-0.721 -1.991,-0.583 -3.329,-0.755c-1.338,-0.172 -0.892,-3.912 -0.824,-4.736c0.069,-0.824 -0.824,0.275 -1.476,-0.296c-0.652,-0.571 0.618,-3.239 1.888,-3.136c1.27,0.103 0.961,0.721 1.201,2.128c0.24,1.407 0.686,1.064 0.789,0.618c0.103,-0.446 0.172,-2.334 0.618,-2.917c0.446,-0.583 0.549,-2.162 1.991,-2.093c1.441,0.069 1.407,-1.304 2.471,-0.858c1.064,0.446 1.819,0.103 1.133,-0.48c-0.686,-0.583 -0.309,-1.167 0.858,-0.789c1.167,0.378 1.235,-1.682 1.03,-2.746c-0.206,-1.064 -1.064,-1.373 -2.128,-0.721c-1.064,0.652 -1.853,0.378 -1.304,-0.721c0.549,-1.098 2.711,-0.172 4.015,0.378c1.304,0.549 1.647,-1.441 0.927,-2.402c-0.721,-0.961 -0.755,-0.515 -2.814,-0.378c-0.82,0.055 -0.736,-0.386 -0.338,-0.936c2.214,-0.838 4.612,-1.3 7.116,-1.3c2.535,0 4.96,0.474 7.197,1.332c0.282,0.394 0.396,0.704 0.2,0.835c-0.824,0.549 -1.544,0.059 -1.304,1.591c0.24,1.532 1.373,3.352 2.265,2.751c0.892,-0.601 2.437,0.154 1.098,0.978c-1.338,0.824 -1.716,0.755 -2.334,1.304c-0.618,0.549 -0.343,0.275 0.275,0.961c0.618,0.686 0.549,0.824 -0.309,1.167c-0.858,0.343 -1.373,1.098 -0.549,1.956c0.824,0.858 1.373,1.579 2.299,0c0.927,-1.579 1.098,-2.951 1.888,-2.54c0.789,0.412 1.682,1.682 2.265,0.961c0.583,-0.721 0.48,-1.201 1.27,-0.652c0.789,0.549 3.707,0.583 1.75,2.025c-1.956,1.441 -1.613,2.059 -2.54,1.888c-0.927,-0.172 -5.114,-1.064 -6.075,1.27c-0.961,2.334 -4.462,4.187 -2.643,6.452c1.819,2.265 1.407,3.912 4.015,4.256c2.608,0.343 3.947,-0.824 4.599,0.378c0.652,1.201 0.137,1.339 0.172,3.157c0.017,0.902 0.498,2.601 0.978,4.089c-3.672,3.81 -8.821,6.188 -14.518,6.188c-2.868,0 -5.597,-0.606 -8.07,-1.69c0.074,-0.286 0.112,-0.502 0.091,-0.593z"/>
  <path id="svg_12" fill="#FFFFFF" d="m32.086,16.38c0.632,-0.38 0.686,0.137 1.235,-1.613c0.549,-1.75 -2.059,-1.991 -3.295,-1.785c-1.235,0.206 -0.686,0.721 -0.686,0.721c0.412,0.652 0.684,3.054 -0.053,3.947c-0.736,0.892 0.602,1.064 1.185,0.24s0.93,-1.099 1.614,-1.51z"/>
 </g>
</svg>