<svg width="32" height="32" xmlns="http://www.w3.org/2000/svg">
 <title/>
 <desc/>

 <g>
  <title>background</title>
  <rect fill="none" id="canvas_background" height="402" width="582" y="-1" x="-1"/>
 </g>
 <g>
  <title>Layer 1</title>
  <path fill="#77b3d4" id="clipboard-edit" d="m26.44323,13.15033l-11.28622,11.29958l0,0l-2.60556,-2.60557l11.29209,-11.29369l2.59969,2.59968l0,0l0,0zm0.70669,-0.70752l1.72918,-1.73123c0.38997,-0.39043 0.38709,-1.02508 -0.0048,-1.4159l-1.17981,-1.17657c-0.39263,-0.39154 -1.02523,-0.39459 -1.41658,-0.00318l-1.72732,1.72756l2.59933,2.59932l0,0l0,0zm-15.24621,10.168l-0.63955,3.1127l3.1349,-0.61734l-2.49535,-2.49536l0,0l0,0zm10.09629,-3.61081l0,9.99641c0,1.11383 -0.89428,2.00359 -1.99742,2.00359l-15.00516,0c-1.10649,0 -1.99742,-0.89704 -1.99742,-2.00359l0,-20.99282c0,-1.11383 0.89428,-2.00359 1.99742,-2.00359l1.00259,0c0.00262,-1.10872 0.89828,-2 2.00275,-2l0.99724,0l0,0c0.0009,-1.66187 1.34784,-3 3.00925,-3l0.9815,0c1.65902,0 3.00835,1.34299 3.00925,3l0.99724,0c1.10759,0 2.00013,0.89498 2.00275,2l0,0l1.00259,0c1.10649,0 1.99742,0.89704 1.99742,2.00359l0,2.99641l3.58011,-3.58011c0.79267,-0.79267 2.05128,-0.7885 2.83014,-0.00964l1.1795,1.1795c0.77644,0.77644 0.77454,2.04596 -0.00964,2.83014l-7.58011,7.58011l0,0l0,0zm-1,-7l0,-3.99693c0,-0.55398 -0.45471,-1.00307 -0.99996,-1.00307l-1.00005,0l0,0c-0.00262,1.10872 -0.89828,2 -2.00275,2l-8.99448,0c-1.10759,0 -2.00013,-0.89498 -2.00275,-2l-1.00005,0c-0.55226,0 -0.99996,0.43892 -0.99996,1.00307l0,20.99386c0,0.55398 0.45471,1.00307 0.99996,1.00307l15.00008,0c0.55226,0 0.99996,-0.43892 0.99996,-1.00307l0,-8.99693l-6,6l-5,1l1,-5l10,-10l0,0l0,0zm-11,-7l0,-1.00209c0,-1.09965 0.89762,-1.99791 2.00488,-1.99791l0.99024,0c1.11098,0 2.00488,0.8945 2.00488,1.99791l0,1.00209l2.00442,0c0.55074,0 0.99558,0.44725 0.99558,0.99896l0,1.00208c0,0.5563 -0.44574,0.99896 -0.99558,0.99896l-9.00884,0c-0.55074,0 -0.99558,-0.44725 -0.99558,-0.99896l0,-1.00208c0,-0.5563 0.44574,-0.99896 0.99558,-0.99896l2.00442,0l0,0zm2.5,0c0.27614,0 0.5,-0.22386 0.5,-0.5c0,-0.27614 -0.22386,-0.5 -0.5,-0.5c-0.27614,0 -0.5,0.22386 -0.5,0.5c0,0.27614 0.22386,0.5 0.5,0.5l0,0l0,0z"/>
 </g>
</svg>