<svg width="128" height="128" xmlns="http://www.w3.org/2000/svg">

 <title/>
 <g>
  <title>background</title>
  <rect fill="none" id="canvas_background" height="402" width="582" y="-1" x="-1"/>
 </g>
 <g>
  <title>Layer 1</title>
  <path fill="#9bddff" id="svg_1" d="m37.27,86.13l0,0a9.26,9.26 0 0 1 -9.27,-8.62l-0.27,-3.92a9.26,9.26 0 0 1 9.27,-9.89l0.54,0a9.26,9.26 0 0 1 9.24,9.9l-0.27,3.92a9.26,9.26 0 0 1 -9.24,8.61z" class="cls-1"/>
  <path fill="#77b3d4" id="svg_2" d="m49.75,71.82l0,0a12.27,12.27 0 0 0 -12.21,-11.12l-0.54,0a12.25,12.25 0 0 0 -12.23,13.09l0.23,3.92a12.28,12.28 0 0 0 12.27,11.42a11.17,11.17 0 0 0 1.54,-0.1a12.1,12.1 0 0 0 5.13,-1.89a12.37,12.37 0 0 0 4.72,-5.74a12.19,12.19 0 0 0 0.84,-3.69l0.27,-3.91a11.89,11.89 0 0 0 -0.02,-1.98zm-6,1.57l-0.27,3.91a6.26,6.26 0 0 1 -12.48,0l-0.26,-3.91a6.25,6.25 0 0 1 6.26,-6.69l0.54,0a6.26,6.26 0 0 1 6.24,6.69l-0.03,0z" class="cls-2"/>
  <path fill="#9bddff" id="svg_3" d="m55.57,108.55l-36.57,0s-0.19,-12.93 3.51,-16c2.51,-2.12 9.42,-3 16.07,-2.77a50.69,50.69 0 0 1 6.24,0.54a13.64,13.64 0 0 0 -1.08,2.84a57.23,57.23 0 0 0 -1.63,12.44l13.49,0c0.03,1.73 -0.03,2.95 -0.03,2.95z" class="cls-1"/>
  <path fill="#77b3d4" id="svg_4" d="m58.62,105.55l-36.62,0c0.23,-4.75 1.12,-9.68 2.39,-10.75c1.67,-1.41 6.85,-2.11 12.21,-2.11l1,0a55.52,55.52 0 0 1 6.08,0.41a13.64,13.64 0 0 1 1.08,-2.84a4.37,4.37 0 0 1 1,-1.28a7.34,7.34 0 0 1 2.16,-1.17c-1.23,-0.27 -2.57,-0.5 -4,-0.68s-2.65,-0.28 -4,-0.36a57.48,57.48 0 0 0 -9.5,0.25c-4.25,0.49 -7.93,1.53 -9.89,3.18c-4.44,3.75 -4.62,15 -4.57,18.38l0,3l42.47,0l0.14,-2.86c0,-0.62 0.06,-1.49 0.06,-2.54c0,-0.18 0,-0.42 -0.01,-0.63z" class="cls-2"/>
  <path fill="#9bddff" id="svg_5" d="m90.71,86.13l0,0a9.26,9.26 0 0 1 -9.24,-8.62l-0.27,-3.92a9.26,9.26 0 0 1 9.24,-9.9l0.56,0a9.26,9.26 0 0 1 9.24,9.9l-0.27,3.92a9.26,9.26 0 0 1 -9.26,8.62z" class="cls-1"/>
  <path fill="#77b3d4" id="svg_6" d="m99.94,64.59a12.32,12.32 0 0 0 -9,-3.89l-0.54,0a12.28,12.28 0 0 0 -12.2,11a12,12 0 0 0 0,2.08l0.27,3.91a12.24,12.24 0 0 0 5.39,9.31a12.22,12.22 0 0 0 5.58,2a10.7,10.7 0 0 0 1.27,0.07a12.3,12.3 0 0 0 12.23,-11.42l0.27,-3.91a12.32,12.32 0 0 0 -3.27,-9.15zm-14.08,4.09a6.2,6.2 0 0 1 4.58,-2l0.56,0a6.26,6.26 0 0 1 6.24,6.69l-0.24,3.93a6.26,6.26 0 0 1 -12.49,0l-0.27,-3.91a6.26,6.26 0 0 1 1.62,-4.71z" class="cls-2"/>
  <path fill="#9bddff" id="svg_7" d="m109,108.55l-36.61,0s0,-1.22 0.07,-3l13.54,0a48.45,48.45 0 0 0 -1.47,-12.55a11.15,11.15 0 0 0 -1.22,-2.85a49.81,49.81 0 0 1 6.39,-0.42c6.41,0 13.07,1 15.8,2.81c4.16,2.8 3.5,16.01 3.5,16.01z" class="cls-1"/>
  <path fill="#77b3d4" id="svg_8" d="m107.19,90c-2,-1.37 -5.63,-2.35 -9.81,-2.88a60.45,60.45 0 0 0 -9.19,-0.42c-1.48,0 -2.94,0.15 -4.33,0.31a34.48,34.48 0 0 0 -4.45,0.78a11.64,11.64 0 0 1 3,1.36a3.33,3.33 0 0 1 0.87,0.94a11.15,11.15 0 0 1 1.25,2.91a53.57,53.57 0 0 1 5.47,-0.31l0.59,0c5.47,0 11,0.82 13.17,2.28c1.22,0.83 2.15,5.5 2.24,10.57l-36.57,0c0,1.27 0,2.33 0,3l0,3l42.42,0l0.14,-2.86c0,-0.63 0.06,-1.53 0.06,-2.6c0.01,-4.83 -0.64,-13.18 -4.86,-16.08z" class="cls-2"/>
  <path fill="#77b3d4" id="svg_9" d="m75.76,49.41a15.66,15.66 0 0 0 -11.41,-5l-0.74,0a15.61,15.61 0 0 0 -15.61,16.73l0.36,5.33c0,0.34 0.06,0.68 0.11,1a15.28,15.28 0 0 0 1.24,4.31l0,0a15.77,15.77 0 0 0 8.8,8.2a15.39,15.39 0 0 0 10.59,0.1a15.66,15.66 0 0 0 9.1,-8.4a15.25,15.25 0 0 0 1.19,-4.15c0.06,-0.36 0.09,-0.73 0.12,-1.1l0.37,-5.33a15.66,15.66 0 0 0 -4.12,-11.69zm-1.82,11.32l-0.37,5.33a9.61,9.61 0 0 1 -19.18,0l-0.39,-5.33a9.62,9.62 0 0 1 9.59,-10.28l0.74,0a9.63,9.63 0 0 1 9.59,10.28l0.02,0z" class="cls-2"/>
  <path fill="#77b3d4" id="svg_10" d="m90.64,92.7a24.61,24.61 0 0 0 -0.94,-3l-0.26,-0.63a14.07,14.07 0 0 0 -1.25,-2.34a8.18,8.18 0 0 0 -1,-1.27a7.45,7.45 0 0 0 -1.4,-1.24a12.73,12.73 0 0 0 -1.89,-1a27.53,27.53 0 0 0 -4.5,-1.5a62.57,62.57 0 0 0 -10.29,-1.55a81.39,81.39 0 0 0 -10.56,-0.17a55.49,55.49 0 0 0 -9.89,1.38a24.57,24.57 0 0 0 -4.38,1.51a10.82,10.82 0 0 0 -2.4,1.49a7,7 0 0 0 -1,1a9.62,9.62 0 0 0 -1,1.39a15.2,15.2 0 0 0 -1.07,2.23c-0.1,0.23 -0.19,0.46 -0.27,0.7a26.4,26.4 0 0 0 -0.92,3a62.64,62.64 0 0 0 -1.56,12.85c0,1.34 0,2.39 0,3l0,0l0,3l55.71,0l0.14,-2.86a0.71,0.71 0 0 1 0,-0.14c0,-0.64 0.06,-1.68 0.06,-3a54.69,54.69 0 0 0 -1.33,-12.85zm-48.57,12.85a57.23,57.23 0 0 1 1.63,-12.44a13.64,13.64 0 0 1 1.08,-2.84a4.37,4.37 0 0 1 1,-1.28a7.34,7.34 0 0 1 2.16,-1.17c3.41,-1.3 9.28,-1.94 15.29,-1.94s12.2,0.65 16.21,1.93a11.64,11.64 0 0 1 3,1.36a3.33,3.33 0 0 1 0.87,0.94a11.15,11.15 0 0 1 1.22,2.89a48.45,48.45 0 0 1 1.47,12.55l-43.93,0z" class="cls-2"/>
 </g>
</svg>