<svg width="500" height="500.002" xmlns="http://www.w3.org/2000/svg">

 <g>
  <title>background</title>
  <rect fill="none" id="canvas_background" height="402" width="582" y="-1" x="-1"/>
 </g>
 <g>
  <title>Layer 1</title>
  <path id="svg_2" fill="#77b3d4" d="m249.999,0c-138.069,0 -249.999,111.939 -249.999,249.996c0,138.076 111.93,250.006 249.999,250.006s250.001,-111.93 250.001,-250.006c0,-138.057 -111.933,-249.996 -250.001,-249.996z"/>
  <path id="svg_3" fill="#CCD1D9" d="m284.261,299.456l10.114,-8.091l17.053,17.948c2.966,3.706 2.36,9.1 -1.327,12.05c-3.706,2.978 -9.105,2.377 -12.064,-1.329l-13.776,-20.578z"/>
  <path id="svg_4" fill="#656D78" d="m286.606,308.769l16.336,-13.078l53.123,60.937c4.788,5.986 3.825,14.698 -2.156,19.481c-5.981,4.783 -14.703,3.822 -19.481,-2.154l-47.822,-65.186z"/>
  <path id="svg_5" fill="#DBDFE4" d="m141.246,208.715c-4.516,52.836 34.669,99.346 87.51,103.867c52.836,4.511 99.34,-34.674 103.853,-87.52c4.511,-52.836 -34.662,-99.347 -87.498,-103.858c-52.843,-4.511 -99.349,34.665 -103.865,87.511zm21.873,1.863c3.476,-40.699 39.413,-70.979 80.132,-67.496c40.687,3.473 70.986,39.418 67.5,80.117c-3.478,40.709 -39.423,70.988 -80.125,67.515c-40.706,-3.492 -70.993,-39.427 -67.507,-80.136z"/>
  <path id="svg_6" fill="#FFFFFF" d="m244.668,126.424c-49.969,-4.269 -93.943,32.772 -98.197,82.737c-4.276,49.964 32.763,93.933 82.737,98.202c49.952,4.269 93.926,-32.763 98.202,-82.737c4.273,-49.964 -32.786,-93.933 -82.742,-98.202zm65.009,96.688c-3.43,40.117 -38.853,69.96 -78.956,66.525c-40.117,-3.425 -69.95,-38.856 -66.525,-78.963c3.427,-40.117 38.851,-69.96 78.958,-66.525c40.107,3.425 69.955,38.846 66.523,78.963z"/>
  <path id="svg_7" opacity="0.5" fill="#e7e1e2" d="m230.721,289.638c40.112,3.424 75.533,-26.418 78.956,-66.525c3.432,-40.107 -26.411,-75.538 -66.523,-78.953c-40.112,-3.434 -75.531,26.408 -78.958,66.515c-3.425,40.107 26.403,75.528 66.525,78.963z"/>
 </g>
</svg>